<?xml version='1.0' encoding='iso-8859-1'?>
<svg version="1.1" xmlns="http://www.w3.org/2000/svg" viewBox="0 0 30.031 30.031" xmlns:xlink="http://www.w3.org/1999/xlink" enable-background="new 0 0 30.031 30.031">
  <g>
    <g>
      <path d="m25.299,8.779c0.977-0.977 0.977-2.559 0-3.535-0.976-0.977-2.559-0.977-3.535,0-0.977,0.977-0.977,2.559 0,3.535 0.976,0.977 2.559,0.977 3.535,0zm-5.768,6.701h3.502c0.383,0.218 0.872,0.182 1.199-0.142l3.539-3.505c0.042-0.042 0.061-0.095 0.094-0.141 0.084-0.075 0.179-0.13 0.26-0.21 2.541-2.517 2.541-6.598 0-9.114-2.541-2.517-6.661-2.517-9.202,0s-2.541,6.598 0,9.114c0.081,0.08 0.176,0.135 0.26,0.21 0.033,0.046 0.052,0.099 0.094,0.141l1.695,1.679h-1.504v0.037c-2.456,0.035-4.438,2.03-4.438,4.494 0,2.485 2.015,4.438 4.5,4.438h4c1.381,0 2.5,1.15 2.5,2.531s-1.119,2.5-2.5,2.5h-14.537l1.761-1.744c0.042-0.042 0.061-0.094 0.094-0.141 0.084-0.075 0.179-0.13 0.26-0.21 2.541-2.517 2.541-6.598 0-9.114-2.541-2.517-6.661-2.517-9.202,0-2.541,2.517-2.541,6.598 0,9.114 0.081,0.08 0.176,0.135 0.26,0.21 0.033,0.047 0.052,0.099 0.094,0.141l3.539,3.505c0.265,0.263 0.638,0.332 0.975,0.239h16.82v-0.006c2.456-0.035 4.438-2.03 4.438-4.494 0-2.448-1.957-4.43-4.391-4.489v-0.011l-4.234,.019c-1.321-0.067-2.375-1.15-2.375-2.487-0.001-1.382 1.118-2.564 2.499-2.564zm.818-5.39l.001-.001c-0.003-0.004-0.007-0.006-0.011-0.009-1.759-1.742-1.759-4.567 0-6.31 1.759-1.742 4.611-1.742 6.371,0 1.759,1.742 1.759,4.567 0,6.31-0.011,0.011-0.024,0.017-0.036,0.028l.003,.004-3.153,3.122-3.175-3.144zm-13.842,17.08l-3.175-3.146v-0.001c-0.003-0.003-0.007-0.006-0.011-0.009-1.759-1.742-1.759-4.567 0-6.31 1.759-1.742 4.611-1.742 6.371,0 1.759,1.742 1.759,4.567 0,6.31-0.011,0.011-0.024,0.018-0.036,0.029l.003,.003-3.152,3.124zm-1.743-7.926c-0.977,0.977-0.977,2.559 0,3.535 0.976,0.977 2.559,0.977 3.535,0 0.977-0.977 0.977-2.559 0-3.535-0.976-0.976-2.559-0.976-3.535,0z"
            fill="#707070"/>
    </g>
  </g>
</svg>
