<?xml version="1.0" encoding="UTF-8" standalone="no"?>

<svg
   xmlns="http://www.w3.org/2000/svg"
   viewBox="0 0 20 20"
   version="1.1"
>
  <g transform="translate(0,-277),scale(0.96042833,1.0412021)"
     style="fill:#000000;fill-opacity:1;stroke:none">
      <path
         d="M 3.5767274,273.99292 1.0958403,268.6415 q 0.019729,0.21702 0.039457,0.43404 0.014796,0.18742 0.024661,0.40443 0.00986,0.21702 0.00986,0.41431 v 4.09864 H 0.10940413 v -6.94944 H 1.4706861 l 2.5203445,5.3958 q -0.019729,-0.20715 -0.034525,-0.43403 -0.014797,-0.19235 -0.029593,-0.43403 -0.00986,-0.24168 -0.00986,-0.48829 v -4.03945 h 1.060419 v 6.94944 z"/>
      <path
         d="m 12.148858,272.06444 q 0,0.47349 -0.128237,0.85326 -0.123304,0.37485 -0.379778,0.64119 -0.256473,0.26634 -0.636251,0.40937 -0.374846,0.1381 -0.877928,0.1381 -0.5573366,0 -0.9420468,-0.17263 -0.3797779,-0.17262 -0.6263869,-0.45376 -0.2416769,-0.28606 -0.3649814,-0.64611 -0.1233046,-0.36005 -0.1578298,-0.72997 l 1.1541303,-0.1233 q 0.024661,0.22195 0.088779,0.40937 0.069051,0.18249 0.1824907,0.31566 0.1134401,0.13317 0.2762021,0.20715 0.162762,0.0691 0.3847105,0.0691 0.409371,0 0.636251,-0.24661 0.22688,-0.24661 0.22688,-0.75462 0,-0.31073 -0.108508,-0.49815 -0.103575,-0.18742 -0.27127,-0.28607 -0.162762,-0.10357 -0.355117,-0.1381 -0.187423,-0.0345 -0.3551167,-0.0345 H 9.4953446 v -1.11961 h 0.3748458 q 0.1676946,0 0.3452526,-0.0395 0.177559,-0.0395 0.31566,-0.14303 0.143033,-0.10357 0.231812,-0.28607 0.08878,-0.18742 0.08878,-0.47348 0,-0.4291 -0.197287,-0.67078 -0.192355,-0.24661 -0.572133,-0.24661 -0.3501847,0 -0.5672006,0.23674 -0.217016,0.23675 -0.2466091,0.67078 l -1.1393338,-0.0986 q 0.049322,-0.48829 0.2219482,-0.84834 0.1726263,-0.36005 0.4340319,-0.59679 0.2614056,-0.23675 0.5967939,-0.35019 0.3403205,-0.11837 0.7200985,-0.11837 0.503082,0 0.863132,0.14797 0.360049,0.14796 0.591861,0.3995 0.231813,0.25154 0.340321,0.58693 0.108508,0.33539 0.108508,0.71517 0,0.30579 -0.07398,0.57213 -0.07398,0.26141 -0.221948,0.47349 -0.147966,0.20715 -0.379778,0.36005 -0.22688,0.14797 -0.54254,0.22195 v 0.0197 q 0.350185,0.0493 0.606658,0.19728 0.261406,0.14304 0.4291,0.36005 0.167694,0.21702 0.246609,0.49322 0.07892,0.27127 0.07892,0.57707 z"/>
      <path
         d="m 16.262296,272.57738 v 1.41554 h -1.085079 v -1.41554 h -2.594328 v -1.04069 l 2.406905,-4.49321 h 1.272502 v 4.50308 h 0.759556 v 1.03082 z m -1.085079,-3.30456 q 0,-0.0838 0,-0.21701 0.0049,-0.1381 0.0099,-0.28114 0.0049,-0.14303 0.0099,-0.27127 0.0099,-0.13317 0.0148,-0.20715 -0.01973,0.0543 -0.06412,0.1529 l -0.09864,0.21701 q -0.05425,0.11838 -0.11344,0.23182 l -0.103576,0.19728 -1.321825,2.4513 h 1.667078 z" />
      <path
         d="m 20.68153,268.5182 q 0,0.32552 -0.128237,0.61159 -0.123304,0.28113 -0.34032,0.49322 -0.212084,0.20715 -0.503083,0.33045 -0.286066,0.11838 -0.61159,0.11838 -0.325524,0 -0.616523,-0.11838 -0.286066,-0.1233 -0.503082,-0.33045 -0.212084,-0.21209 -0.335388,-0.49322 -0.123305,-0.28607 -0.123305,-0.61159 0,-0.33046 0.123305,-0.61159 0.123304,-0.28607 0.335388,-0.49322 0.217016,-0.21208 0.503082,-0.33046 0.290999,-0.11837 0.616523,-0.11837 0.325524,0 0.61159,0.11837 0.290999,0.11838 0.503083,0.33046 0.217016,0.20715 0.34032,0.49322 0.128237,0.28113 0.128237,0.61159 z m -0.779285,0 q 0,-0.17263 -0.06412,-0.32059 -0.05919,-0.1529 -0.167694,-0.26141 -0.108508,-0.11344 -0.256473,-0.17262 -0.143034,-0.0641 -0.31566,-0.0641 -0.172626,0 -0.320592,0.0641 -0.147965,0.0592 -0.261405,0.17262 -0.108508,0.10851 -0.172627,0.26141 -0.06412,0.14796 -0.06412,0.32059 0,0.16769 0.06412,0.32059 0.06412,0.14797 0.172627,0.26141 0.11344,0.11344 0.261405,0.18249 0.147966,0.0641 0.320592,0.0641 0.172626,0 0.31566,-0.0641 0.147965,-0.0691 0.256473,-0.18249 0.108508,-0.11344 0.167694,-0.26141 0.06412,-0.1529 0.06412,-0.32059 z"/>
      <path
         d="m 0.41326363,284.46951 v -6.94944 H 4.8966161 v 1.12454 H 1.6068514 v 1.74599 h 3.0431557 v 1.12454 H 1.6068514 v 1.82984 h 3.4525267 v 1.12453 z" />
      <path
         d="m 11.998956,282.19578 q 0,0.52281 -0.123304,0.96177 -0.118372,0.43403 -0.360049,0.74969 -0.236745,0.31073 -0.596794,0.48829 -0.360049,0.17263 -0.833539,0.17263 -1.0061647,0 -1.5487046,-0.8582 -0.5376078,-0.86313 -0.5376078,-2.55487 0,-1.85943 0.5474721,-2.79655 0.5474721,-0.94205 1.5635013,-0.94205 0.340321,0 0.616523,0.0888 0.281134,0.0838 0.49815,0.27621 0.221948,0.19235 0.374846,0.49815 0.152897,0.30086 0.246609,0.73489 l -1.070283,0.18249 q -0.07892,-0.36498 -0.261406,-0.52281 -0.182491,-0.16276 -0.4291,-0.16276 -0.4586926,0 -0.7200982,0.55733 -0.2564734,0.55734 -0.2564734,1.69174 0.1824906,-0.36991 0.5030824,-0.5672 0.325524,-0.19729 0.7348952,-0.19729 0.374846,0 0.680641,0.1529 0.305795,0.14797 0.522811,0.43403 0.217016,0.28114 0.330456,0.69051 0.118372,0.40937 0.118372,0.92232 z m -1.139333,0.0394 q 0,-0.28113 -0.05425,-0.50308 -0.04932,-0.22688 -0.15783,-0.38471 -0.108508,-0.15783 -0.266338,-0.24167 -0.15783,-0.0888 -0.360049,-0.0888 -0.1479656,0 -0.3008632,0.0592 -0.1528976,0.0592 -0.27127,0.19236 -0.1134401,0.12823 -0.1874228,0.33045 -0.073983,0.20222 -0.073983,0.48829 0,0.29593 0.059186,0.5524 0.064118,0.25648 0.1726264,0.44883 0.1134401,0.18743 0.2712699,0.29593 0.1578298,0.10358 0.3551173,0.10358 0.38471,0 0.596794,-0.33046 0.217016,-0.33539 0.217016,-0.92232 z" />
      <path
         d="m 12.595751,284.46951 v -0.96177 q 0.192355,-0.51788 0.473489,-0.93218 0.281134,-0.41924 0.58693,-0.76449 0.305795,-0.35019 0.606658,-0.64612 0.300863,-0.30086 0.537608,-0.57706 0.241677,-0.28114 0.389642,-0.56227 0.152898,-0.28114 0.152898,-0.5968 0,-0.46362 -0.192356,-0.68557 -0.187422,-0.22195 -0.557336,-0.22195 -0.364981,0 -0.557336,0.24168 -0.187423,0.23674 -0.246609,0.71517 l -1.144266,-0.0789 q 0.03946,-0.40937 0.162762,-0.76942 0.128236,-0.36005 0.360049,-0.63132 0.231812,-0.27127 0.581997,-0.42417 0.350185,-0.15783 0.838471,-0.15783 0.458693,0 0.81381,0.13317 0.355117,0.12824 0.596794,0.37978 0.246609,0.25154 0.369913,0.61652 0.128237,0.36005 0.128237,0.82368 0,0.48828 -0.15783,0.88286 -0.15783,0.39457 -0.404439,0.72996 -0.246609,0.33046 -0.547472,0.62146 l -0.581997,0.5672 q -0.286067,0.2762 -0.522811,0.55733 -0.231813,0.28114 -0.345253,0.60173 h 2.648581 v 1.13933 z" />
      <path
         d="m 20.531629,278.99479 q 0,0.32553 -0.128236,0.61159 -0.123305,0.28114 -0.340321,0.49322 -0.212084,0.20715 -0.503082,0.33046 -0.286067,0.11837 -0.611591,0.11837 -0.325524,0 -0.616522,-0.11837 -0.286067,-0.12331 -0.503083,-0.33046 -0.212084,-0.21208 -0.335388,-0.49322 -0.123305,-0.28606 -0.123305,-0.61159 0,-0.33045 0.123305,-0.61159 0.123304,-0.28606 0.335388,-0.49322 0.217016,-0.21208 0.503083,-0.33045 0.290998,-0.11837 0.616522,-0.11837 0.325524,0 0.611591,0.11837 0.290998,0.11837 0.503082,0.33045 0.217016,0.20716 0.340321,0.49322 0.128236,0.28114 0.128236,0.61159 z m -0.779284,0 q 0,-0.17262 -0.06412,-0.32059 -0.05919,-0.1529 -0.167694,-0.26141 -0.108508,-0.11344 -0.256473,-0.17262 -0.143033,-0.0641 -0.31566,-0.0641 -0.172626,0 -0.320591,0.0641 -0.147966,0.0592 -0.261406,0.17262 -0.108508,0.10851 -0.172626,0.26141 -0.06412,0.14797 -0.06412,0.32059 0,0.1677 0.06412,0.32059 0.06412,0.14797 0.172626,0.26141 0.11344,0.11344 0.261406,0.18249 0.147965,0.0641 0.320591,0.0641 0.172627,0 0.31566,-0.0641 0.147965,-0.0691 0.256473,-0.18249 0.108508,-0.11344 0.167694,-0.26141 0.06412,-0.15289 0.06412,-0.32059 z" />
    </g>
</svg>
