<?xml version="1.0" standalone="no"?>
<!DOCTYPE svg PUBLIC "-//W3C//DTD SVG 20010904//EN"
 "http://www.w3.org/TR/2001/REC-SVG-20010904/DTD/svg10.dtd">
<svg version="1.0" xmlns="http://www.w3.org/2000/svg"
 width="1280.000000pt" height="1277.000000pt" viewBox="0 0 1280.000000 1277.000000"
 preserveAspectRatio="xMidYMid meet">
<metadata>
Created by potrace 1.15, written by Peter Selinger 2001-2017
</metadata>
<g transform="translate(0.000000,1277.000000) scale(0.100000,-0.100000)"
fill="#000000" stroke="none">
<path d="M2750 12751 c-116 -26 -186 -52 -295 -110 -299 -157 -485 -326 -1104
-1004 -79 -86 -271 -277 -427 -422 -320 -301 -448 -431 -570 -584 -148 -183
-238 -344 -290 -517 -24 -78 -28 -106 -28 -234 -1 -176 13 -238 89 -395 133
-276 388 -564 1000 -1130 276 -255 599 -572 1175 -1154 437 -441 795 -808 795
-814 0 -12 -1837 -1835 -2267 -2250 -525 -506 -711 -761 -804 -1098 -13 -46
-18 -101 -18 -194 0 -152 19 -236 87 -375 60 -123 147 -232 362 -457 105 -109
323 -340 485 -513 580 -622 785 -826 1149 -1146 240 -212 346 -280 509 -326
111 -32 292 -31 417 1 355 92 700 348 1234 916 410 436 1057 1110 1286 1340
444 446 749 702 869 730 33 7 53 -13 1756 -1730 698 -703 847 -844 1040 -981
419 -297 777 -346 1153 -158 203 101 279 166 802 683 595 589 869 857 1067
1044 373 352 518 591 535 882 12 221 -66 463 -232 717 -184 281 -425 535 -985
1039 -219 197 -451 424 -900 879 -333 337 -656 658 -719 714 -155 137 -176
165 -175 227 0 38 8 59 35 99 19 27 463 474 987 992 1735 1716 1773 1755 1841
1853 79 114 132 225 162 340 20 75 23 114 23 230 -1 162 -19 243 -83 381 -83
177 -180 299 -487 614 -116 118 -334 357 -486 531 -456 523 -681 753 -933 954
-162 130 -277 205 -420 275 -404 199 -747 166 -1087 -104 -58 -47 -211 -190
-340 -319 -262 -263 -2071 -2052 -2303 -2278 -161 -156 -197 -182 -261 -183
-57 -1 -98 30 -200 149 -47 55 -208 224 -358 375 -1608 1625 -2172 2191 -2240
2249 -224 189 -409 268 -646 277 -89 3 -134 0 -200 -15z"/>
</g>
</svg>
