<svg xmlns="http://www.w3.org/2000/svg" preserveAspectRatio="xMidYMid meet" viewBox="0 0 1280 1277"><path d="M275 2c-12 3-19 5-29 11-30 16-49 33-111 100l-43 43c-32 30-44 43-57 58-14 18-23 34-29 52-2 7-2 10-2 23-1 18 1 24 8 40 14 27 39 56 101 113 27 25 59 57 117 115l80 81c0 1-184 184-227 225-53 51-71 76-81 110l-1 19c0 16 2 24 8 38 6 12 15 23 37 46l48 51c58 62 79 83 115 115 24 21 35 28 51 32 11 3 29 3 42 0 35-9 70-35 123-92l128-133c45-45 75-71 87-73 4-1 6 1 176 173 70 70 85 84 104 98 42 29 78 34 115 15 21-10 28-16 80-68l107-104c38-36 52-59 54-89 1-22-7-46-23-71-19-28-43-54-99-104-22-20-45-43-90-88l-72-71c-15-14-17-17-17-23 0-4 0-6 3-10l99-99 184-186c8-11 13-22 16-34 2-7 2-11 2-23 0-16-2-24-8-38-8-17-18-30-49-61l-48-53c-46-52-68-75-94-96-16-13-27-20-41-27-41-20-75-17-109 10l-34 32-230 228c-17 16-20 18-27 18-5 1-9-3-20-14-4-6-20-23-35-38L360 28a99 99 0 00-85-26z"/></svg>